<svg xmlns="http://www.w3.org/2000/svg" viewBox="0 0 200 200" width="200" height="200"><circle cx="100" cy="100" r="80" fill="#fff" opacity=".13"/>
<defs>
<radialGradient id="boy3face" cx="47%" cy="38%" r="64%"><stop offset="0" stop-color="#C9936C"/><stop offset=".6" stop-color="#AE7651"/><stop offset="1" stop-color="#915F3D"/></radialGradient>
<linearGradient id="boy3neck" x1="0" y1="0" x2="0" y2="1"><stop offset="0" stop-color="#6E4329"/><stop offset=".5" stop-color="#915F3D"/><stop offset="1" stop-color="#AE7651"/></linearGradient>
<linearGradient id="boy3ear" x1="0" y1="0" x2="1" y2="0"><stop offset="0" stop-color="#915F3D"/><stop offset="1" stop-color="#AE7651"/></linearGradient>
<linearGradient id="boy3cloth" x1="0" y1="0" x2="0" y2="1"><stop offset="0" stop-color="#3F3F49"/><stop offset=".45" stop-color="#2B2B32"/><stop offset="1" stop-color="#141418"/></linearGradient>
<linearGradient id="boy3hood" x1="0" y1="0" x2="0" y2="1"><stop offset="0" stop-color="#FF6A2C"/><stop offset="1" stop-color="#D9441A"/></linearGradient>
<linearGradient id="boy3collar" x1="0" y1="0" x2="0" y2="1"><stop offset="0" stop-color="#FF6A2C"/><stop offset="1" stop-color="#D9441A"/></linearGradient>
<linearGradient id="boy3hair" x1="0" y1="0" x2=".35" y2="1"><stop offset="0" stop-color="#2A2A33"/><stop offset="1" stop-color="#17171C"/></linearGradient>
<radialGradient id="boy3iris" cx="45%" cy="38%" r="62%"><stop offset="0" stop-color="#93653F"/><stop offset=".6" stop-color="#5A3A22"/><stop offset="1" stop-color="#2B1A0E"/></radialGradient>
<radialGradient id="boy3blush" cx="50%" cy="50%" r="50%"><stop offset="0" stop-color="#B5604A" stop-opacity=".5"/><stop offset="1" stop-color="#B5604A" stop-opacity="0"/></radialGradient>
<filter id="boy3soft" x="-20%" y="-20%" width="140%" height="140%"><feGaussianBlur stdDeviation="2.2"/></filter>
<clipPath id="boy3eyeL"><path d="M72 99 C76.5 91 90.5 91 95 99 C90.5 105.4 76.5 105.4 72 99 Z"/></clipPath>
<clipPath id="boy3eyeR"><path d="M105 99 C109.5 91 123.5 91 128 99 C123.5 105.4 109.5 105.4 105 99 Z"/></clipPath>
<clipPath id="boy3headClip"><path d="M65 94 C65 65 80 50 100 50 C120 50 135 65 135 94 C135 107 133 118 128 126 C122 135 112 142 100 142 C88 142 78 135 72 126 C67 118 65 107 65 94 Z"/></clipPath>
</defs>
<path d="M14 214 C16 172 44 152 100 150 C156 152 184 172 186 214 Z" fill="url(#boy3cloth)"/>
<path d="M46 182 C52 194 54 204 54 214 M154 182 C148 194 146 204 146 214" stroke="#141418" stroke-width="2" fill="none" opacity=".7"/>
<path d="M30 182 C38 172 50 166 62 163 M170 182 C162 172 150 166 138 163" stroke="#3F3F49" stroke-width="2.2" fill="none" opacity=".7" stroke-linecap="round"/>
<path d="M54 160 C60 144 78 136 100 136 C122 136 140 144 146 160 C136 176 118 182 100 182 C82 182 64 176 54 160 Z" fill="url(#boy3collar)"/>
<path d="M72 156 C80 149 90 146 100 146 C110 146 120 149 128 156 C120 163 110 166 100 166 C90 166 80 163 72 156 Z" fill="#A33210"/>
<path d="M86 124 L114 124 L116 162 C110 168 90 168 84 162 Z" fill="url(#boy3neck)"/>
<ellipse cx="100" cy="140" rx="17" ry="7" fill="#000" opacity=".22" filter="url(#boy3soft)"/>
<path d="M68 158 C78 167 89 170 100 170 C111 170 122 167 132 158 C126 172 113 178 100 178 C87 178 74 172 68 158 Z" fill="url(#boy3collar)"/>
<path d="M62 162 C72 173 85 178 100 178" stroke="#FF9A6A" stroke-width="2" fill="none" opacity=".75" stroke-linecap="round"/>
<path d="M92 174 C91 183 92 190 91 198 M108 174 C109 183 108 190 109 198" stroke="#F4F4F4" stroke-width="3.2" fill="none" stroke-linecap="round"/>
<rect x="88.6" y="196" width="4.8" height="8" rx="1.6" fill="#B9B9C2"/><rect x="106.6" y="196" width="4.8" height="8" rx="1.6" fill="#B9B9C2"/>
<path d="M66 96 C58 92 55 100 57 107 C59 114 64 117 69 114 Z" fill="url(#boy3ear)"/>
<path d="M65 100 C61 99 60 104 62 108 C63 111 66 111 67 109" stroke="#6E4329" stroke-width="1.6" fill="none" stroke-linecap="round"/>
<path d="M134 96 C142 92 145 100 143 107 C141 114 136 117 131 114 Z" fill="#AE7651"/>
<path d="M135 100 C139 99 140 104 138 108 C137 111 134 111 133 109" stroke="#6E4329" stroke-width="1.6" fill="none" stroke-linecap="round"/>
<path d="M65 94 C65 65 80 50 100 50 C120 50 135 65 135 94 C135 107 133 118 128 126 C122 135 112 142 100 142 C88 142 78 135 72 126 C67 118 65 107 65 94 Z" fill="url(#boy3face)"/>
<g clip-path="url(#boy3headClip)">
<path d="M70 118 C76 132 88 140 100 140 C112 140 124 132 130 118 L132 150 L68 150 Z" fill="#6E4329" opacity=".3"/>
<ellipse cx="80" cy="108" rx="7" ry="4" fill="#fff" opacity=".14" filter="url(#boy3soft)"/>
<ellipse cx="120" cy="108" rx="7" ry="4" fill="#fff" opacity=".1" filter="url(#boy3soft)"/>
</g>
<g clip-path="url(#boy3headClip)"><path d="M65.5 94 C63 78 64 62 72 52 C80 43 90 39 100 39 C111 39 121 43 128 52 C136 62 137 78 134.5 94 C133 86 131 80 128 75 C118 70.5 82 70.5 72 75 C69 80 67 86 65.5 94 Z" fill="#000" opacity=".2" filter="url(#boy3soft)" transform="translate(0 3)"/></g>
<path d="M65.5 94 C63 78 64 62 72 52 C80 43 90 39 100 39 C111 39 121 43 128 52 C136 62 137 78 134.5 94 C133 86 131 80 128 75 C118 70.5 82 70.5 72 75 C69 80 67 86 65.5 94 Z" fill="url(#boy3hair)"/>
<circle cx="80.8" cy="43.0" r="3.4" fill="#17171C"/><path d="M78.4 42.4 a2.6 2.6 0 0 1 4.6 -1" stroke="#62626F" stroke-width="1" fill="none" opacity=".55" stroke-linecap="round"/><circle cx="89.0" cy="44.8" r="4.9" fill="#2A2A33"/><path d="M86.6 44.2 a2.6 2.6 0 0 1 4.6 -1" stroke="#62626F" stroke-width="1" fill="none" opacity=".55" stroke-linecap="round"/><circle cx="92.9" cy="43.1" r="3.5" fill="#17171C"/><path d="M90.5 42.5 a2.6 2.6 0 0 1 4.6 -1" stroke="#62626F" stroke-width="1" fill="none" opacity=".55" stroke-linecap="round"/><circle cx="100.1" cy="44.1" r="4.3" fill="#2A2A33"/><path d="M97.7 43.5 a2.6 2.6 0 0 1 4.6 -1" stroke="#62626F" stroke-width="1" fill="none" opacity=".55" stroke-linecap="round"/><circle cx="105.7" cy="43.7" r="4.0" fill="#17171C"/><path d="M103.3 43.1 a2.6 2.6 0 0 1 4.6 -1" stroke="#62626F" stroke-width="1" fill="none" opacity=".55" stroke-linecap="round"/><circle cx="111.9" cy="43.9" r="4.1" fill="#17171C"/><path d="M109.5 43.3 a2.6 2.6 0 0 1 4.6 -1" stroke="#62626F" stroke-width="1" fill="none" opacity=".55" stroke-linecap="round"/><circle cx="118.3" cy="44.3" r="4.4" fill="#2A2A33"/><path d="M115.9 43.7 a2.6 2.6 0 0 1 4.6 -1" stroke="#62626F" stroke-width="1" fill="none" opacity=".55" stroke-linecap="round"/><circle cx="75.2" cy="49.4" r="3.7" fill="#17171C"/><path d="M72.8 48.8 a2.6 2.6 0 0 1 4.6 -1" stroke="#62626F" stroke-width="1" fill="none" opacity=".55" stroke-linecap="round"/><circle cx="83.1" cy="50.5" r="4.6" fill="#2A2A33"/><path d="M80.7 49.9 a2.6 2.6 0 0 1 4.6 -1" stroke="#62626F" stroke-width="1" fill="none" opacity=".55" stroke-linecap="round"/><circle cx="89.2" cy="50.1" r="4.3" fill="#2A2A33"/><path d="M86.8 49.5 a2.6 2.6 0 0 1 4.6 -1" stroke="#62626F" stroke-width="1" fill="none" opacity=".55" stroke-linecap="round"/><circle cx="95.4" cy="49.9" r="4.1" fill="#17171C"/><path d="M93.0 49.3 a2.6 2.6 0 0 1 4.6 -1" stroke="#62626F" stroke-width="1" fill="none" opacity=".55" stroke-linecap="round"/><circle cx="101.5" cy="49.5" r="3.8" fill="#17171C"/><path d="M99.1 48.9 a2.6 2.6 0 0 1 4.6 -1" stroke="#62626F" stroke-width="1" fill="none" opacity=".55" stroke-linecap="round"/><circle cx="109.3" cy="50.6" r="4.7" fill="#2A2A33"/><path d="M106.9 50.0 a2.6 2.6 0 0 1 4.6 -1" stroke="#62626F" stroke-width="1" fill="none" opacity=".55" stroke-linecap="round"/><circle cx="115.6" cy="50.5" r="4.6" fill="#2A2A33"/><path d="M113.2 49.9 a2.6 2.6 0 0 1 4.6 -1" stroke="#62626F" stroke-width="1" fill="none" opacity=".55" stroke-linecap="round"/><circle cx="121.5" cy="50.0" r="4.2" fill="#2A2A33"/><path d="M119.1 49.4 a2.6 2.6 0 0 1 4.6 -1" stroke="#62626F" stroke-width="1" fill="none" opacity=".55" stroke-linecap="round"/><circle cx="128.1" cy="50.0" r="4.2" fill="#2A2A33"/><path d="M125.7 49.4 a2.6 2.6 0 0 1 4.6 -1" stroke="#62626F" stroke-width="1" fill="none" opacity=".55" stroke-linecap="round"/><circle cx="68.9" cy="56.1" r="3.4" fill="#17171C"/><path d="M66.5 55.5 a2.6 2.6 0 0 1 4.6 -1" stroke="#62626F" stroke-width="1" fill="none" opacity=".55" stroke-linecap="round"/><circle cx="75.6" cy="56.1" r="3.5" fill="#17171C"/><path d="M73.2 55.5 a2.6 2.6 0 0 1 4.6 -1" stroke="#62626F" stroke-width="1" fill="none" opacity=".55" stroke-linecap="round"/><circle cx="83.0" cy="56.7" r="4.0" fill="#17171C"/><path d="M80.6 56.1 a2.6 2.6 0 0 1 4.6 -1" stroke="#62626F" stroke-width="1" fill="none" opacity=".55" stroke-linecap="round"/><circle cx="89.6" cy="56.7" r="3.9" fill="#17171C"/><path d="M87.2 56.1 a2.6 2.6 0 0 1 4.6 -1" stroke="#62626F" stroke-width="1" fill="none" opacity=".55" stroke-linecap="round"/><circle cx="97.7" cy="57.9" r="4.9" fill="#2A2A33"/><path d="M95.3 57.3 a2.6 2.6 0 0 1 4.6 -1" stroke="#62626F" stroke-width="1" fill="none" opacity=".55" stroke-linecap="round"/><circle cx="103.4" cy="57.1" r="4.3" fill="#2A2A33"/><path d="M101.0 56.5 a2.6 2.6 0 0 1 4.6 -1" stroke="#62626F" stroke-width="1" fill="none" opacity=".55" stroke-linecap="round"/><circle cx="110.2" cy="57.1" r="4.3" fill="#2A2A33"/><path d="M107.8 56.5 a2.6 2.6 0 0 1 4.6 -1" stroke="#62626F" stroke-width="1" fill="none" opacity=".55" stroke-linecap="round"/><circle cx="116.8" cy="57.1" r="4.3" fill="#2A2A33"/><path d="M114.4 56.5 a2.6 2.6 0 0 1 4.6 -1" stroke="#62626F" stroke-width="1" fill="none" opacity=".55" stroke-linecap="round"/><circle cx="123.5" cy="57.1" r="4.3" fill="#2A2A33"/><path d="M121.1 56.5 a2.6 2.6 0 0 1 4.6 -1" stroke="#62626F" stroke-width="1" fill="none" opacity=".55" stroke-linecap="round"/><circle cx="130.2" cy="57.1" r="4.3" fill="#2A2A33"/><path d="M127.8 56.5 a2.6 2.6 0 0 1 4.6 -1" stroke="#62626F" stroke-width="1" fill="none" opacity=".55" stroke-linecap="round"/><circle cx="70.4" cy="63.5" r="3.8" fill="#17171C"/><path d="M68.0 62.9 a2.6 2.6 0 0 1 4.6 -1" stroke="#62626F" stroke-width="1" fill="none" opacity=".55" stroke-linecap="round"/><circle cx="77.7" cy="63.8" r="4.1" fill="#17171C"/><path d="M75.3 63.2 a2.6 2.6 0 0 1 4.6 -1" stroke="#62626F" stroke-width="1" fill="none" opacity=".55" stroke-linecap="round"/><circle cx="84.3" cy="63.6" r="3.9" fill="#17171C"/><path d="M81.9 63.0 a2.6 2.6 0 0 1 4.6 -1" stroke="#62626F" stroke-width="1" fill="none" opacity=".55" stroke-linecap="round"/><circle cx="92.6" cy="64.8" r="4.8" fill="#2A2A33"/><path d="M90.2 64.2 a2.6 2.6 0 0 1 4.6 -1" stroke="#62626F" stroke-width="1" fill="none" opacity=".55" stroke-linecap="round"/><circle cx="98.8" cy="64.2" r="4.4" fill="#2A2A33"/><path d="M96.4 63.6 a2.6 2.6 0 0 1 4.6 -1" stroke="#62626F" stroke-width="1" fill="none" opacity=".55" stroke-linecap="round"/><circle cx="106.4" cy="64.8" r="4.9" fill="#2A2A33"/><path d="M104.0 64.2 a2.6 2.6 0 0 1 4.6 -1" stroke="#62626F" stroke-width="1" fill="none" opacity=".55" stroke-linecap="round"/><circle cx="112.8" cy="64.4" r="4.5" fill="#2A2A33"/><path d="M110.4 63.8 a2.6 2.6 0 0 1 4.6 -1" stroke="#62626F" stroke-width="1" fill="none" opacity=".55" stroke-linecap="round"/><circle cx="118.3" cy="63.2" r="3.6" fill="#17171C"/><path d="M115.9 62.6 a2.6 2.6 0 0 1 4.6 -1" stroke="#62626F" stroke-width="1" fill="none" opacity=".55" stroke-linecap="round"/><circle cx="126.9" cy="64.7" r="4.8" fill="#2A2A33"/><path d="M124.5 64.1 a2.6 2.6 0 0 1 4.6 -1" stroke="#62626F" stroke-width="1" fill="none" opacity=".55" stroke-linecap="round"/><circle cx="131.9" cy="63.1" r="3.5" fill="#17171C"/><path d="M129.5 62.5 a2.6 2.6 0 0 1 4.6 -1" stroke="#62626F" stroke-width="1" fill="none" opacity=".55" stroke-linecap="round"/><circle cx="69.3" cy="69.4" r="3.7" fill="#17171C"/><path d="M66.9 68.8 a2.6 2.6 0 0 1 4.6 -1" stroke="#62626F" stroke-width="1" fill="none" opacity=".55" stroke-linecap="round"/><circle cx="77.4" cy="70.7" r="4.7" fill="#2A2A33"/><path d="M75.0 70.1 a2.6 2.6 0 0 1 4.6 -1" stroke="#62626F" stroke-width="1" fill="none" opacity=".55" stroke-linecap="round"/><circle cx="83.4" cy="70.1" r="4.3" fill="#2A2A33"/><path d="M81.0 69.5 a2.6 2.6 0 0 1 4.6 -1" stroke="#62626F" stroke-width="1" fill="none" opacity=".55" stroke-linecap="round"/><circle cx="88.9" cy="69.1" r="3.5" fill="#17171C"/><path d="M86.5 68.5 a2.6 2.6 0 0 1 4.6 -1" stroke="#62626F" stroke-width="1" fill="none" opacity=".55" stroke-linecap="round"/><circle cx="95.7" cy="69.2" r="3.6" fill="#17171C"/><path d="M93.3 68.6 a2.6 2.6 0 0 1 4.6 -1" stroke="#62626F" stroke-width="1" fill="none" opacity=".55" stroke-linecap="round"/><circle cx="102.8" cy="69.5" r="3.8" fill="#17171C"/><path d="M100.4 68.9 a2.6 2.6 0 0 1 4.6 -1" stroke="#62626F" stroke-width="1" fill="none" opacity=".55" stroke-linecap="round"/><circle cx="111.1" cy="70.9" r="5.0" fill="#2A2A33"/><path d="M108.7 70.3 a2.6 2.6 0 0 1 4.6 -1" stroke="#62626F" stroke-width="1" fill="none" opacity=".55" stroke-linecap="round"/><circle cx="116.5" cy="69.9" r="4.1" fill="#17171C"/><path d="M114.1 69.3 a2.6 2.6 0 0 1 4.6 -1" stroke="#62626F" stroke-width="1" fill="none" opacity=".55" stroke-linecap="round"/><circle cx="122.1" cy="69.0" r="3.4" fill="#17171C"/><path d="M119.7 68.4 a2.6 2.6 0 0 1 4.6 -1" stroke="#62626F" stroke-width="1" fill="none" opacity=".55" stroke-linecap="round"/><circle cx="130.0" cy="70.0" r="4.2" fill="#17171C"/><path d="M127.6 69.4 a2.6 2.6 0 0 1 4.6 -1" stroke="#62626F" stroke-width="1" fill="none" opacity=".55" stroke-linecap="round"/>
<path d="M66 94 C66 86 68 80 71.5 75.5 L73 96 Z M134 94 C134 86 132 80 128.5 75.5 L127 96 Z" fill="#17171C" opacity=".55"/>
<path d="M68 100 L72 100 L72.6 106 L68.8 106 Z M132 100 L128 100 L127.4 106 L131.2 106 Z" fill="#17171C" opacity=".45"/>
<g transform="translate(0 -2.2)">
<path d="M72.5 89.5 C78 85 87 84.4 94.5 87 C88 87.8 79 89 73 92.6 Z" fill="#17171C"/>
<path d="M127.5 89.5 C122 85 113 84.4 105.5 87 C112 87.8 121 89 127 92.6 Z" fill="#17171C"/></g>
<path d="M72 99 C76.5 91 90.5 91 95 99 C90.5 105.4 76.5 105.4 72 99 Z" fill="#FBFAF8"/>
<g clip-path="url(#boy3eyeL)">
<circle cx="83.9" cy="98.6" r="6.1" fill="url(#boy3iris)"/>
<circle cx="83.9" cy="98.6" r="6.1" fill="none" stroke="#24150E" stroke-width=".8" opacity=".6"/>
<circle cx="83.9" cy="98.6" r="2.9" fill="#0E0B09"/>
<circle cx="86.1" cy="96.4" r="1.8" fill="#fff"/>
<circle cx="81.9" cy="101" r=".9" fill="#fff" opacity=".7"/>
<path d="M70.5 94 C77.5 90 89.5 90 96.5 94 L96.5 96.6 C89.5 93.4 77.5 93.4 70.5 96.6 Z" fill="#6E4329" opacity=".3"/>
</g>
<path d="M74 91 C79.5 87.4 87.5 87.4 93 90.6" stroke="#6E4329" stroke-width="1.1" fill="none" opacity=".5" stroke-linecap="round"/>
<path d="M71.4 99.4 C76.5 90.6 90.5 90.6 95.6 99.2" stroke="#1F120B" stroke-width="2.1" fill="none" stroke-linecap="round"/>
<path d="M75.5 104.4 C80.5 106.4 86.5 106.4 91.5 104.4" stroke="#6E4329" stroke-width="1" fill="none" opacity=".55" stroke-linecap="round"/>
<path d="M105 99 C109.5 91 123.5 91 128 99 C123.5 105.4 109.5 105.4 105 99 Z" fill="#FBFAF8"/>
<g clip-path="url(#boy3eyeR)">
<circle cx="116.9" cy="98.6" r="6.1" fill="url(#boy3iris)"/>
<circle cx="116.9" cy="98.6" r="6.1" fill="none" stroke="#24150E" stroke-width=".8" opacity=".6"/>
<circle cx="116.9" cy="98.6" r="2.9" fill="#0E0B09"/>
<circle cx="119.1" cy="96.4" r="1.8" fill="#fff"/>
<circle cx="114.9" cy="101" r=".9" fill="#fff" opacity=".7"/>
<path d="M103.5 94 C110.5 90 122.5 90 129.5 94 L129.5 96.6 C122.5 93.4 110.5 93.4 103.5 96.6 Z" fill="#6E4329" opacity=".3"/>
</g>
<path d="M107 91 C112.5 87.4 120.5 87.4 126 90.6" stroke="#6E4329" stroke-width="1.1" fill="none" opacity=".5" stroke-linecap="round"/>
<path d="M104.4 99.4 C109.5 90.6 123.5 90.6 128.6 99.2" stroke="#1F120B" stroke-width="2.1" fill="none" stroke-linecap="round"/>
<path d="M108.5 104.4 C113.5 106.4 119.5 106.4 124.5 104.4" stroke="#6E4329" stroke-width="1" fill="none" opacity=".55" stroke-linecap="round"/>
<path d="M100.5 100 C99.4 105 97.8 109.5 96.8 112" stroke="#6E4329" stroke-width="1.5" fill="none" opacity=".55" stroke-linecap="round"/>
<path d="M95.5 113.4 C97.5 115.6 102.5 115.6 104.5 113.4" stroke="#6E4329" stroke-width="1.7" fill="none" stroke-linecap="round"/>
<ellipse cx="97.6" cy="113.6" rx="1.5" ry=".9" fill="#6E4329" opacity=".85"/><ellipse cx="102.4" cy="113.6" rx="1.5" ry=".9" fill="#6E4329" opacity=".85"/>
<path d="M101.2 102 C101 106 100.8 108 101 110" stroke="#fff" stroke-width="1.4" opacity=".32" fill="none" stroke-linecap="round"/>
<ellipse cx="100.6" cy="111.2" rx="1.6" ry="1.1" fill="#fff" opacity=".28"/><ellipse cx="78" cy="114" rx="9" ry="6" fill="url(#boy3blush)"/><ellipse cx="122" cy="114" rx="9" ry="6" fill="url(#boy3blush)"/>
<path d="M89 121.8 C94.6 124.2 105.4 124.2 111 121.8 C108.6 128.6 91.4 128.6 89 121.8 Z" fill="#6F271F"/>
<path d="M90.6 122.5 C95.6 124.6 104.4 124.6 109.4 122.5 L109 123.8 C104.2 125.6 95.8 125.6 91 123.8 Z" fill="#FFFFFF"/>
<path d="M94 126.4 C97.6 127.6 102.4 127.6 106 126.4 C104 128 96 128 94 126.4 Z" fill="#D9706A" opacity=".8"/>
<path d="M87.2 121.2 C93.6 120 97.6 120.6 100 121.4 C102.4 120.6 106.4 120 112.8 121.2 C106 122.8 94 122.8 87.2 121.2 Z" fill="#6B342A" opacity="0.7"/>
<path d="M91 128.2 C96 131.6 104 131.6 109 128.2 C104 130 96 130 91 128.2 Z" fill="#8C4A3A" opacity="0.55"/>
<path d="M86.6 120.4 C87.6 121.4 87.8 122.2 87.4 123.2 M113.4 120.4 C112.4 121.4 112.2 122.2 112.6 123.2" stroke="#6E4329" stroke-width="1.2" fill="none" stroke-linecap="round" opacity=".7"/></svg>