<svg xmlns="http://www.w3.org/2000/svg" viewBox="0 0 80 80" fill="none">
  <path d="M22 66l-5 7M58 66l5 7" stroke="#0F8ED9" stroke-width="5" stroke-linecap="round" fill="none"/>
  <path d="M10 22a11 11 0 0 1 17-9" stroke="#FF9600" stroke-width="7" stroke-linecap="round" fill="none"/>
  <path d="M70 22a11 11 0 0 0-17-9" stroke="#FF9600" stroke-width="7" stroke-linecap="round" fill="none"/>
  <rect x="37" y="6" width="6" height="8" rx="2" fill="#0F8ED9"/>
  <circle cx="40" cy="43" r="28" fill="#1CB0F6"/>
  <path d="M40 15a28 28 0 0 1 0 56Z" fill="#0F8ED9" opacity=".45"/>
  <circle cx="40" cy="43" r="21" fill="#fff"/>
  <path d="M40 22a21 21 0 0 1 0 42Z" fill="#DDF4FF"/>
  <g fill="#8FA3AD">
    <circle cx="40" cy="26.5" r="2"/><circle cx="56.5" cy="43" r="2"/><circle cx="40" cy="59.5" r="2"/><circle cx="23.5" cy="43" r="2"/>
  </g>
  <!-- hands at 2:00 -->
  <path d="M40 43L49 37.8" fill="none" stroke="#3C3C3C" stroke-width="3.6" stroke-linecap="round"/>
  <path d="M40 43V29.5" fill="none" stroke="#3C3C3C" stroke-width="3" stroke-linecap="round"/>
  <circle cx="40" cy="43" r="3.2" fill="#FF4B4B"/>
  <ellipse cx="25" cy="29" rx="4" ry="6.5" fill="#fff" opacity=".55" transform="rotate(35 25 29)"/>
  <path transform="translate(70 46) scale(0.75)" d="M0 -6L1.8 -1.8L6 0L1.8 1.8L0 6L-1.8 1.8L-6 0L-1.8 -1.8Z" fill="#FFC800"/><path transform="translate(9 50) scale(0.6)" d="M0 -6L1.8 -1.8L6 0L1.8 1.8L0 6L-1.8 1.8L-6 0L-1.8 -1.8Z" fill="#FFC800"/>
</svg>